#!OML:ASF I:\Actors\actors\Patient Classification 1\Patient 1\Session 1\Subject1.ASF
:FULLY-SPECIFIED
:DEGREES
467
root 0.231106 17.7582 8.35837 18.3979 0.172001 -8.39112
lowerback 2.042 1.21894 2.95756
upperback 3.5654 1.53273 5.26778
thorax 2.46303 0.76187 3.78215
lowerneck 0.295101 -3.38347 -2.01435
upperneck 13.1078 -5.11594 5.73906
head 4.52948 -2.35736 2.11118
rclavicle 0 1.51076e-014
rhumerus 35.2605 68.911 -35.7698
rradius 56.8675
rwrist -24.161
rhand 16.4464 -32.2788
rfingers 7.12502
rthumb 41.2113 -57.1276
lclavicle 0 1.51076e-014
lhumerus 24.2562 -62.5602 49.1929
lradius 46.5968
lwrist 43.6359
lhand -12.0103 -2.90602
lfingers 7.12502
lthumb 14.0471 26.5993
rfemur -16.5111 25.2495 18.8457
rtibia 4.71422
rfoot -11.6488 -27.7192
rtoes 4.17554
lfemur -13.5028 -36.965 -0.535406
ltibia -1.09383
lfoot -14.0088 47.2032
ltoes 5.3113
468
root 0.230838 17.7579 8.34914 18.3579 0.163242 -8.35006
lowerback 2.07713 1.15168 2.89764
upperback 3.60028 1.44115 5.36482
thorax 2.47987 0.713024 3.91733
lowerneck 0.239769 -3.33469 -1.92491
upperneck 13.008 -5.03127 5.58294
head 4.48952 -2.31906 2.04276
rclavicle 4.77083e-015 -8.74653e-015
rhumerus 35.2207 68.9216 -35.8285
rradius 56.9651
rwrist -24.1532
rhand 16.5522 -32.1647
rfingers 7.12502
rthumb 41.3107 -56.9815
lclavicle 4.77083e-015 -8.74653e-015
lhumerus 24.1061 -62.2809 49.4157
lradius 46.4808
lwrist 43.4173
lhand -11.9225 -2.94682
lfingers 7.12502
lthumb 14.1317 26.5526
rfemur -16.4922 25.2487 18.8052
rtibia 4.69776
rfoot -11.6619 -27.7336
rtoes 4.24863
lfemur -13.5178 -36.7855 -0.617905
ltibia -1.02511
lfoot -13.8558 47.0161
ltoes 5.03771
469
root 0.229844 17.7581 8.34086 18.3547 0.12306 -8.23239
lowerback 2.05291 1.09748 2.71807
upperback 3.57271 1.36718 5.44661
thorax 2.46223 0.670469 4.10402
lowerneck 0.223881 -3.28638 -2.16002
upperneck 13.123 -4.97888 5.7112
head 4.54636 -2.29752 2.13298
rclavicle 4.37326e-015 4.29375e-014
rhumerus 34.987 68.9949 -36.0524
rradius 57.0451
rwrist -24.1972
rhand 16.637 -32.089
rfingers 7.12502
rthumb 41.3903 -56.8801
lclavicle 4.37326e-015 4.29375e-014
lhumerus 23.9311 -62.1501 49.6402
lradius 46.432
lwrist 43.3294
lhand -11.8214 -2.69181
lfingers 7.12502
lthumb 14.2291 26.8008
rfemur -16.5301 25.324 18.6378
rtibia 4.69729
rfoot -11.6597 -27.8227
rtoes 4.23987
lfemur -13.5699 -36.8008 -0.739361
ltibia -0.975066
lfoot -13.7333 47.0217
ltoes 4.81565
470
root 0.228294 17.7581 8.33375 18.3471 0.0851777 -8.16317
lowerback 2.02046 1.04416 2.59495
upperback 3.5839 1.29166 5.52348
thorax 2.49173 0.628368 4.25512
lowerneck 0.171686 -3.23463 -2.17976
upperneck 13.173 -4.89975 5.61073
head 4.56754 -2.26265 2.10465
rclavicle -1.35174e-014 -3.57812e-014
rhumerus 34.7933 69.0008 -36.278
rradius 57.1272
rwrist -24.1825
rhand 16.7139 -32.151
rfingers 7.12502
rthumb 41.4624 -56.9186
lclavicle -1.35174e-014 -3.57812e-014
lhumerus 23.9516 -62.0446 49.631
lradius 46.4454
lwrist 43.4537
lhand -12.0264 -2.65027
lfingers 7.12502
lthumb 14.0315 26.8561
rfemur -16.5586 25.4523 18.5292
rtibia 4.70423
rfoot -11.6824 -27.937
rtoes 4.32781
lfemur -13.5825 -36.9727 -0.788183
ltibia -0.976974
lfoot -13.855 47.1957
ltoes 4.89091
471
root 0.227013 17.758 8.3266 18.3076 0.0755936 -8.11553
lowerback 2.02379 0.986286 2.48467
upperback 3.60685 1.21156 5.60004
thorax 2.51443 0.584185 4.39825
lowerneck -0.302895 -3.19903 -2.6596
upperneck 14.148 -4.94551 6.14147
head 4.49303 -2.24206 2.12783
rclavicle 1.03368e-014 9.62118e-014
rhumerus 34.7383 69.0355 -36.3636
rradius 57.2122
rwrist -24.1499
rhand 16.8388 -32.2702
rfingers 7.12502
rthumb 41.5796 -56.9995
lclavicle 1.03368e-014 9.62118e-014
lhumerus 23.9345 -61.9298 49.6596
lradius 46.4914
lwrist 43.5491
lhand -12.2197 -2.85532
lfingers 7.12502
lthumb 13.8453 26.6639
rfemur -16.5319 25.5332 18.4763
rtibia 4.69534
rfoot -11.7204 -28.0032
rtoes 4.55
lfemur -13.5502 -37.0892 -0.849709
ltibia -0.964643
lfoot -14.0899 47.2593
ltoes 5.03048
472
root 0.226009 17.7585 8.31868 18.2808 0.0665243 -8.063
lowerback 2.03517 0.923494 2.37752
upperback 3.61373 1.1264 5.67403
thorax 2.51689 0.537651 4.53651
lowerneck 0.0910804 -3.16651 -2.03462
upperneck 13.2919 -4.78883 5.34112
head 4.60554 -2.21034 1.98902
rclavicle 4.77083e-015 -4.77083e-015
rhumerus 34.9486 69.1238 -36.1984
rradius 57.2273
rwrist -24.2235
rhand 16.9079 -32.2507
rfingers 7.12502
rthumb 41.6444 -56.9587
lclavicle 4.77083e-015 -4.77083e-015
lhumerus 23.8176 -61.7823 49.7925
lradius 46.5073
lwrist 43.3864
lhand -12.0787 -3.05227
lfingers 7.12502
lthumb 13.9812 26.4576
rfemur -16.533 25.5419 18.4139
rtibia 4.69641
rfoot -11.7084 -28.0127
rtoes 4.63388
lfemur -13.5621 -37.1459 -0.905297
ltibia -0.919975
lfoot -14.2339 47.2652
ltoes 5.10789
473
root 0.224605 17.7585 8.31062 18.2831 0.0506075 -8.0932
lowerback 2.02599 0.874972 2.31022
upperback 3.59534 1.05999 5.78822
thorax 2.50431 0.501054 4.69461
lowerneck -0.0514238 -3.11563 -2.34349
upperneck 13.9112 -4.7901 5.76241
head 4.35636 -2.17799 1.97061
rclavicle 4.37326e-015 -8.74653e-015
rhumerus 35.1368 69.2381 -36.0245
rradius 57.2094
rwrist -24.2164
rhand 16.8629 -32.0967
rfingers 7.12502
rthumb 41.6022 -56.8186
lclavicle 4.37326e-015 -8.74653e-015
lhumerus 23.7789 -61.7029 49.8808
lradius 46.4684
lwrist 43.1742
lhand -11.8207 -3.04374
lfingers 7.12502
lthumb 14.2298 26.4488
rfemur -16.5994 25.5456 18.4247
rtibia 4.73765
rfoot -11.657 -27.9898
rtoes 4.43319
lfemur -13.6142 -37.0982 -0.835292
ltibia -0.899592
lfoot -14.1987 47.2564
ltoes 5.01744
474
root 0.223139 17.7574 8.30354 18.2633 0.0115119 -8.18353
lowerback 2.06939 0.840186 2.328
upperback 3.57143 1.01556 5.90107
thorax 2.45691 0.477755 4.80212
lowerneck -0.0298663 -3.09948 -2.47978
upperneck 13.942 -4.77191 5.8185
head 4.36549 -2.17316 2.01138
rclavicle -2.10712e-014 -8.98507e-014
rhumerus 35.2972 69.3797 -35.846
rradius 57.2477
rwrist -24.055
rhand 16.8405 -32.0866
rfingers 7.12502
rthumb 41.5812 -56.8155
lclavicle -2.10712e-014 -8.98507e-014
lhumerus 23.752 -61.6728 49.9557
lradius 46.4527
lwrist 43.0899
lhand -11.6723 -2.98007
lfingers 7.12502
lthumb 14.3728 26.5024
rfemur -16.6289 25.5489 18.5257
rtibia 4.77989
rfoot -11.6084 -27.9218
rtoes 4.1308
lfemur -13.5688 -37.0434 -0.740442
ltibia -0.957857
lfoot -14.1294 47.2602
ltoes 4.97136
475
root 0.222477 17.7561 8.29771 18.2212 -0.0459024 -8.19972
lowerback 2.09716 0.79499 2.31791
upperback 3.5434 0.957365 5.96586
thorax 2.41518 0.447624 4.87514
lowerneck 0.193108 -3.07649 -2.47172
upperneck 13.807 -4.72524 5.72583
head 4.28294 -2.16058 1.98767
rclavicle 1.59028e-015 -5.56597e-015
rhumerus 35.5674 69.5852 -35.5722
rradius 57.305
rwrist -23.8896
rhand 16.9588 -32.2221
rfingers 7.12502
rthumb 41.6921 -56.9145
lclavicle 1.59028e-015 -5.56597e-015
lhumerus 23.5796 -61.6747 50.098
lradius 46.5022
lwrist 43.0691
lhand -11.5636 -3.08231
lfingers 7.12502
lthumb 14.4775 26.3926
rfemur -16.6062 25.487 18.5677
rtibia 4.79557
rfoot -11.5533 -27.8001
rtoes 3.98196
lfemur -13.4684 -37.1299 -0.760594
ltibia -1.02046
lfoot -14.2373 47.3481
ltoes 5.19805
476
root 0.222057 17.755 8.29211 18.1898 -0.0941096 -8.14939
lowerback 2.08582 0.741791 2.19125
upperback 3.55662 0.883162 6.02892
thorax 2.43775 0.406104 5.01422
lowerneck 0.239904 -3.04304 -2.45236
upperneck 13.7853 -4.67184 5.65165
head 4.26422 -2.13843 1.9647
rclavicle -3.18055e-015 4.45278e-014
rhumerus 36.2952 69.7453 -34.8521
rradius 57.3103
rwrist -23.8709
rhand 17.0799 -32.3083
rfingers 7.12502
rthumb 41.8057 -56.9631
lclavicle -3.18055e-015 4.45278e-014
lhumerus 23.6537 -61.7109 49.9471
lradius 46.5825
lwrist 43.1376
lhand -11.5295 -3.20246
lfingers 7.12502
lthumb 14.5104 26.2701
rfemur -16.6045 25.4421 18.5115
rtibia 4.8174
rfoot -11.5547 -27.6952
rtoes 4.03612
lfemur -13.4258 -37.2214 -0.84045
ltibia -1.03352
lfoot -14.2588 47.4525
ltoes 5.16908
477
root 0.221282 17.7538 8.28715 18.1648 -0.13781 -8.12404
lowerback 2.06914 0.700512 2.07284
upperback 3.57357 0.823876 6.1199
thorax 2.46654 0.371695 5.17847
lowerneck 0.23623 -3.01103 -2.43944
upperneck 13.8193 -4.61836 5.54458
head 4.27041 -2.11636 1.93168
rclavicle -4.77083e-015 -2.06736e-014
rhumerus 37.1017 69.8879 -33.9932
rradius 57.2981
rwrist -23.982
rhand 17.0652 -32.355
rfingers 7.12502
rthumb 41.7919 -57.0144
lclavicle -4.77083e-015 -2.06736e-014
lhumerus 23.888 -61.7952 49.6716
lradius 46.6614
lwrist 43.3106
lhand -11.5172 -3.25439
lfingers 7.12502
lthumb 14.5222 26.2173
rfemur -16.6145 25.4442 18.4723
rtibia 4.85008
rfoot -11.5843 -27.6211
rtoes 3.98338
lfemur -13.3844 -37.2759 -0.89676
ltibia -1.05783
lfoot -14.088 47.5364
ltoes 4.96899
478
root 0.220058 17.7529 8.28302 18.141 -0.185903 -8.13328
lowerback 2.03688 0.681892 1.93552
upperback 3.59347 0.792405 6.28624
thorax 2.50469 0.349384 5.43394
lowerneck 0.284017 -2.99842 -2.50816
upperneck 13.339 -4.52756 5.14178
head 4.58064 -2.11756 2.0191
rclavicle 1.63003e-014 5.64548e-014
rhumerus 37.9659 70.0263 -32.9174
rradius 57.3299
rwrist -24.1081
rhand 17.0436 -32.4516
rfingers 7.12502
rthumb 41.7717 -57.1177
lclavicle 1.63003e-014 5.64548e-014
lhumerus 24.1493 -61.8544 49.542
lradius 46.7005
lwrist 43.4622
lhand -11.3833 -3.2723
lfingers 7.12502
lthumb 14.6512 26.1901
rfemur -16.6199 25.4355 18.4821
rtibia 4.88731
rfoot -11.5837 -27.5349
rtoes 3.81176
lfemur -13.3232 -37.3393 -0.919375
ltibia -1.07526
lfoot -14.1423 47.619
ltoes 5.00896
479
root 0.220068 17.7529 8.27869 18.1242 -0.191683 -8.15732
lowerback 2.00139 0.662293 1.77849
upperback 3.59829 0.758498 6.56244
thorax 2.52873 0.323696 5.81804
lowerneck 0.041682 -2.99358 -3.08475
upperneck 13.9352 -4.54628 5.33331
head 4.3448 -2.11835 1.97242
rclavicle 1.98785e-015 5.88403e-014
rhumerus 39.0536 70.1889 -31.4013
rradius 57.4195
rwrist -24.2375
rhand 17.1583 -32.5647
rfingers 7.12502
rthumb 41.8792 -57.1951
lclavicle 1.98785e-015 5.88403e-014
lhumerus 24.2699 -61.8702 49.792
lradius 46.6677
lwrist 43.4852
lhand -11.2789 -3.32248
lfingers 7.12502
lthumb 14.7518 26.1326
rfemur -16.6332 25.3988 18.506
rtibia 4.93389
rfoot -11.6012 -27.4339
rtoes 3.76762
lfemur -13.317 -37.4048 -0.891302
ltibia -1.05375
lfoot -14.3267 47.6819
ltoes 5.1001
